<!--?xml version="1.0" standalone="no"?-->
              <svg id="sw-js-blob-svg" viewBox="0 0 100 100" xmlns="http://www.w3.org/2000/svg" version="1.1">
                    <defs> 
                        <linearGradient id="sw-gradient" x1="0" x2="1" y1="1" y2="0">
                            <stop id="stop1" stop-color="rgba(55, 207, 220, 1)" offset="0%"></stop>
                            <stop id="stop2" stop-color="rgba(89, 141, 228, 1)" offset="100%"></stop>
                        </linearGradient>
                    </defs>
                <path fill="url(#sw-gradient)" d="M17.8,-28.8C24.5,-27.1,32.1,-25,33.8,-20.1C35.6,-15.3,31.4,-7.6,30.5,-0.5C29.6,6.6,31.9,13.2,29.6,17C27.2,20.8,20.2,21.9,14.5,26.3C8.8,30.7,4.4,38.5,-0.9,40C-6.2,41.6,-12.5,37,-15.6,31.1C-18.7,25.2,-18.8,18,-23.5,12.6C-28.2,7.3,-37.5,3.6,-41.4,-2.2C-45.2,-8.1,-43.5,-16.1,-38.8,-21.5C-34.1,-26.9,-26.4,-29.6,-19.4,-31C-12.4,-32.5,-6.2,-32.8,-0.3,-32.2C5.6,-31.7,11.2,-30.4,17.8,-28.8Z" width="100%" height="100%" transform="translate(50 50)" style="transition: all 0.3s ease 0s;" stroke-width="0" stroke="url(#sw-gradient)"></path>
              </svg>