<svg width="1580" height="899.9999999999999" xmlns="http://www.w3.org/2000/svg" version="1.1">
 <defs>
  <linearGradient y2="0" y1="1" x2="1" x1="0" id="sw-gradient">
   <stop offset="0%" stop-color="rgba(55, 207, 220, 1)" id="stop1"/>
   <stop offset="100%" stop-color="rgba(89, 141, 228, 1)" id="stop2"/>
  </linearGradient>
 </defs>
 <g>
  <title>Layer 1</title>
  <path stroke="url(#sw-gradient)" id="svg_1" stroke-width="0" height="100%" width="100%" d="m1328.32422,3.19095c312.99937,-4.48594 238.74099,80.39583 234.91911,154.98534c-3.82188,74.58951 -4.90425,164.1738 -4.65999,259.85121c0.24426,95.67741 -3.52813,181.98784 -49.75621,227.8433c-48.23799,45.85546 -227.2658,17.46236 -341.83102,70.55816c-114.56522,53.0958 -203.00153,147.22018 -309.52708,165.32102c-106.52555,19.30756 -233.15027,-36.20168 -295.45767,-107.39833c-62.3074,-71.19664 -64.31732,-158.08068 -158.78337,-223.24371c-94.46606,-63.95631 -281.38826,-108.60505 -359.77498,-178.59497c-76.37681,-71.19664 -35.54151,-251.06857 58.92455,-316.2316c94.46606,-65.16303 225.89605,-44.41072 374.92359,-47.97138c149.02754,-3.56066 276.9757,-0.5141 395.56075,-1.14722c118.58505,-0.63311 142.46297,0.5141 455.46233,-3.97184z" fill="url(#sw-gradient)"/>
 </g>
</svg>