<?xml version="1.0" standalone="no"?>
<svg xmlns:xlink="http://www.w3.org/1999/xlink" id="wave" style="transform:rotate(0deg); transition: 0.3s" viewBox="0 0 1440 490" version="1.1" xmlns="http://www.w3.org/2000/svg"><defs><linearGradient id="sw-gradient-0" x1="0" x2="0" y1="1" y2="0"><stop stop-color="rgba(89, 141, 228, 1)" offset="0%"/><stop stop-color="rgba(55, 207, 220, 1)" offset="100%"/></linearGradient></defs><path style="transform:translate(0, 0px); opacity:1" fill="url(#sw-gradient-0)" d="M0,0L80,65.3C160,131,320,261,480,277.7C640,294,800,196,960,171.5C1120,147,1280,196,1440,212.3C1600,229,1760,212,1920,228.7C2080,245,2240,294,2400,285.8C2560,278,2720,212,2880,196C3040,180,3200,212,3360,245C3520,278,3680,310,3840,318.5C4000,327,4160,310,4320,253.2C4480,196,4640,98,4800,114.3C4960,131,5120,261,5280,318.5C5440,376,5600,359,5760,367.5C5920,376,6080,408,6240,392C6400,376,6560,310,6720,261.3C6880,212,7040,180,7200,171.5C7360,163,7520,180,7680,228.7C7840,278,8000,359,8160,383.8C8320,408,8480,376,8640,351.2C8800,327,8960,310,9120,285.8C9280,261,9440,229,9600,245C9760,261,9920,327,10080,351.2C10240,376,10400,359,10560,294C10720,229,10880,114,11040,73.5C11200,33,11360,65,11440,81.7L11520,98L11520,490L11440,490C11360,490,11200,490,11040,490C10880,490,10720,490,10560,490C10400,490,10240,490,10080,490C9920,490,9760,490,9600,490C9440,490,9280,490,9120,490C8960,490,8800,490,8640,490C8480,490,8320,490,8160,490C8000,490,7840,490,7680,490C7520,490,7360,490,7200,490C7040,490,6880,490,6720,490C6560,490,6400,490,6240,490C6080,490,5920,490,5760,490C5600,490,5440,490,5280,490C5120,490,4960,490,4800,490C4640,490,4480,490,4320,490C4160,490,4000,490,3840,490C3680,490,3520,490,3360,490C3200,490,3040,490,2880,490C2720,490,2560,490,2400,490C2240,490,2080,490,1920,490C1760,490,1600,490,1440,490C1280,490,1120,490,960,490C800,490,640,490,480,490C320,490,160,490,80,490L0,490Z"/></svg>